<svg version="1.1" xmlns="http://www.w3.org/2000/svg" xmlns:xlink="http://www.w3.org/1999/xlink" xmlns:a="http://ns.adobe.com/AdobeSVGViewerExtensions/3.0/" x="0px" y="0px" width="54px" height="77.4px" viewBox="0 0 54 77.4" enable-background="new 0 0 54 77.4" xml:space="preserve"><path id="drop_x5F_mid_1_" fill="#255C8C" d="M12,33.9c7.1,0,12-5.2,12-11.6C23.9,15.8,12,0,12,0S0,15.8,0,22.3 C0,28.7,4.8,33.9,12,33.9z"/><linearGradient id="drop_x5F_mid_x5F_highlight_2_" gradientUnits="userSpaceOnUse" x1="4.1325" y1="8.5218" x2="18.1325" y2="33.0218"><stop  offset="0" style="stop-color:#C8E3F6;stop-opacity:0.75"/><stop  offset="0.4713" style="stop-color:#C8E3F6;stop-opacity:0"/></linearGradient><path id="drop_x5F_mid_x5F_highlight_1_" fill="url(#drop_x5F_mid_x5F_highlight_2_)" d="M12,33.9c7.1,0,12-5.2,12-11.6 C23.9,15.8,12,0,12,0S0,15.8,0,22.3C0,28.7,4.8,33.9,12,33.9z"/><path id="drop_x5F_back_1_" fill="#498DC1" d="M38.4,21.8c4.6,0,7.7-3.3,7.7-7.5c0-4.2-7.7-14.3-7.7-14.3s-7.7,10.2-7.7,14.3 C30.7,18.5,33.8,21.8,38.4,21.8z"/><linearGradient id="drop_x5F_back_x5F_highlight_2_" gradientUnits="userSpaceOnUse" x1="33.0561" y1="2.152" x2="41.0561" y2="20.8186"><stop  offset="0" style="stop-color:#C8E3F6;stop-opacity:0.75"/><stop  offset="0.4713" style="stop-color:#C8E3F6;stop-opacity:0"/></linearGradient><path id="drop_x5F_back_x5F_highlight_1_" fill="url(#drop_x5F_back_x5F_highlight_2_)" d="M38.4,21.8c4.6,0,7.7-3.3,7.7-7.5 c0-4.2-7.7-14.3-7.7-14.3s-7.7,10.2-7.7,14.3C30.7,18.5,33.8,21.8,38.4,21.8z"/><g id="arrow_x5F_back_1_"><path fill="#5C863C" d="M5.6,47.9v9.3c0,0,2.4-9.6,23.3-10.5v-7.2C28.8,39.5,7.5,40.7,5.6,47.9z"/><path fill="#5C863C" d="M34.7,40.4H37c0,0,13.9,0.5,17,8.4v8.9c0,0-3.4-8.6-17-10.5L34.7,40.4z"/></g><path id="drop_x5F_front_2_" fill="#002A57" d="M30.3,77.4c10.6,0,17.9-7.7,17.9-17.3c0-9.6-17.9-33.2-17.9-33.2S12.4,50.5,12.4,60.1 C12.4,69.8,19.6,77.4,30.3,77.4z"/><g id="drop_x5F_front_x5F_highlight_1_"><linearGradient id="SVGID_1_" gradientUnits="userSpaceOnUse" x1="15.1798" y1="37.4931" x2="40.9332" y2="74.2728"><stop  offset="0" style="stop-color:#C8E3F6;stop-opacity:0.75"/><stop  offset="0.4713" style="stop-color:#C8E3F6;stop-opacity:0"/></linearGradient><path fill="url(#SVGID_1_)" d="M30.3,77.4c10.6,0,17.9-7.7,17.9-17.3c0-9.6-17.9-33.2-17.9-33.2S12.4,50.5,12.4,60.1 C12.4,69.8,19.6,77.4,30.3,77.4z"/></g><g id="arrow_x5F_front_1_"><path fill="#9CBC46" d="M5.6,47.9V58c0,0,1.7,7,14.4,9.1v6l10.8-9.4L20.7,51v6.7C20.7,57.8,8.7,58.2,5.6,47.9z"/><path fill="#9CBC46" d="M33.2,60.3v8.4c0,0,16.8,0.7,20.9-9.6v-9.6C54,49.5,53.4,60.1,33.2,60.3z"/></g></svg>