<svg version="1.1" xmlns="http://www.w3.org/2000/svg" xmlns:xlink="http://www.w3.org/1999/xlink" xmlns:a="http://ns.adobe.com/AdobeSVGViewerExtensions/3.0/" x="0px" y="0px" width="260.6px" height="260.6px" viewBox="0 0 260.6 260.6" enable-background="new 0 0 260.6 260.6" xml:space="preserve"><defs></defs><g><defs><filter id="Adobe_OpacityMaskFilter" filterUnits="userSpaceOnUse" x="0" y="0" width="260.6" height="260.6"><feColorMatrix  type="matrix" values="1 0 0 0 0  0 1 0 0 0  0 0 1 0 0  0 0 0 1 0"/></filter></defs><mask maskUnits="userSpaceOnUse" x="0" y="0" width="260.6" height="260.6" id="SVGID_1_"><g filter="url(#Adobe_OpacityMaskFilter)"><radialGradient id="SVGID_2_" cx="-470.6732" cy="102.5272" r="156.9205" gradientTransform="matrix(0.6241 0 0 0.6865 424.0616 59.9265)" gradientUnits="userSpaceOnUse"><stop  offset="0" style="stop-color:#FFFFFF"/><stop  offset="8.587653e-02" style="stop-color:#F5F6F6"/><stop  offset="0.2181" style="stop-color:#E3E4E5"/><stop  offset="0.3803" style="stop-color:#C6C8CA"/><stop  offset="0.566" style="stop-color:#9EA0A3"/><stop  offset="0.7717" style="stop-color:#6F7072"/><stop  offset="0.9913" style="stop-color:#0D0D0D"/><stop  offset="1" style="stop-color:#000000"/></radialGradient><path class="glow" fill="url(#SVGID_2_)" d="M260.6,130.3c0,72-58.3,130.3-130.3,130.3C58.3,260.6,0,202.3,0,130.3C0,58.3,58.3,0,130.3,0 C202.3,0,260.6,58.3,260.6,130.3z"/></g></mask><path opacity="0.85" mask="url(#SVGID_1_)" fill="#FFFEF9" d="M260.6,130.3c0,72-58.3,130.3-130.3,130.3 C58.3,260.6,0,202.3,0,130.3C0,58.3,58.3,0,130.3,0C202.3,0,260.6,58.3,260.6,130.3z"/><g><linearGradient id="SVGID_3_" gradientUnits="userSpaceOnUse" x1="133.0994" y1="83.8477" x2="133.0994" y2="157.0498"><stop  offset="0" style="stop-color:#0073AE"/><stop  offset="0.1608" style="stop-color:#006EA9"/><stop  offset="0.3949" style="stop-color:#00609A"/><stop  offset="0.6726" style="stop-color:#004B83"/><stop  offset="0.7546" style="stop-color:#00447C"/></linearGradient><path fill="url(#SVGID_3_)" d="M153.6,134.6c0-8.3-10.8-24.3-18.4-34.5l-5.7-8.2l4-3l-18.9-5.1l-2,19.8l3.9-2.6l2.7,3.9 c1.3,1.9,2.8,4,4.2,6l1.2,1.7l0,0c6,8.6,12.2,17.8,12.2,23.6v1.2c0,0,0.7,6.2-7.5,12.2l1.2,7.4c10.5-0.3,23.1-4.3,23.1-21.6 L153.6,134.6z"/><linearGradient id="SVGID_4_" gradientUnits="userSpaceOnUse" x1="115.427" y1="105.1709" x2="115.427" y2="158.2334"><stop  offset="0" style="stop-color:#5D873C"/><stop  offset="0.1815" style="stop-color:#678F3D"/><stop  offset="0.4971" style="stop-color:#84A642"/><stop  offset="0.6994" style="stop-color:#9DBD47"/></linearGradient><path fill="url(#SVGID_4_)" d="M108.9,158.2l19.5,0.1l-3.2-19.6l-3.1,3.5l-0.7,0.8c-2.5-4.1-2.3-5.8-2.3-5.8v-1.2 c0-4.3,3.3-10.5,7.3-16.9l-9.7-13.8c-6.9,9.8-14.4,22.1-14.4,29l-0.1,0.6c0,10.8,4.4,16.4,9.9,19.2l-0.2,0.3L108.9,158.2z"/></g></g></svg>